<?xml version="1.0" standalone="no"?>
<!DOCTYPE svg PUBLIC "-//W3C//DTD SVG 20010904//EN"
 "http://www.w3.org/TR/2001/REC-SVG-20010904/DTD/svg10.dtd">
<svg version="1.0" xmlns="http://www.w3.org/2000/svg"
 width="500.000000pt" height="217.000000pt" viewBox="0 0 500.000000 217.000000"
 preserveAspectRatio="xMidYMid meet">

<g transform="translate(0.000000,217.000000) scale(0.100000,-0.100000)"
fill="#000000" stroke="none">
<path d="M3432 1724 c-100 -50 -140 -138 -149 -326 l-6 -118 -43 0 -44 0 0
-90 0 -90 45 0 45 0 0 -245 0 -245 115 0 115 0 0 245 0 245 80 0 80 0 0 90 0
90 -80 0 -80 0 0 83 c1 99 13 157 37 175 17 13 58 12 93 -2 12 -5 26 14 55 75
39 79 39 81 20 95 -32 23 -114 44 -175 44 -40 0 -71 -7 -108 -26z"/>
<path d="M1427 1688 c-5 -35 -4 -431 2 -1015 l1 -63 115 0 115 0 0 560 0 560
-114 0 -114 0 -5 -42z"/>
<path d="M712 1281 c-95 -33 -179 -120 -207 -213 -22 -75 -20 -195 6 -263 73
-196 311 -275 480 -159 l49 34 0 -35 0 -35 115 0 115 0 0 335 0 335 -115 0
-115 0 0 -30 0 -30 -46 30 c-81 51 -189 63 -282 31z m256 -201 c47 -29 72 -76
72 -135 0 -93 -62 -155 -156 -155 -122 0 -189 117 -131 230 39 76 141 105 215
60z"/>
<path d="M2050 1291 c-98 -20 -206 -106 -251 -198 -20 -41 -24 -63 -24 -148 0
-86 3 -107 25 -150 55 -112 172 -191 298 -202 149 -12 286 40 357 137 l25 35
-82 41 -82 41 -44 -33 c-43 -34 -68 -39 -147 -34 -60 4 -115 56 -115 110 0 19
9 20 241 20 l242 0 -5 73 c-3 44 -14 93 -28 125 -28 66 -111 144 -177 167 -54
19 -180 28 -233 16z m144 -155 c36 -15 66 -50 66 -78 0 -16 -12 -18 -125 -18
-69 0 -125 3 -125 6 0 20 34 73 53 82 53 25 85 27 131 8z"/>
<path d="M2787 1289 c-114 -27 -187 -107 -187 -204 0 -85 47 -138 183 -205 79
-39 92 -49 95 -72 3 -23 -2 -30 -25 -39 -37 -14 -80 -5 -150 32 l-57 30 -17
-22 c-9 -12 -29 -46 -45 -76 l-29 -54 23 -19 c72 -59 244 -86 362 -56 119 30
176 91 186 198 10 105 -59 184 -205 233 -84 28 -105 43 -99 72 7 39 78 39 203
-2 18 -5 26 4 55 65 33 69 34 72 16 85 -48 36 -222 55 -309 34z"/>
<path d="M3935 1291 c-96 -25 -172 -91 -218 -189 -28 -60 -32 -77 -32 -157 0
-80 4 -97 31 -156 37 -78 85 -129 157 -166 46 -25 63 -28 152 -28 88 0 106 3
153 26 l52 26 0 -44 c0 -90 -61 -147 -160 -148 -75 0 -104 10 -148 49 l-37 34
-93 -47 -93 -47 33 -49 c57 -85 150 -131 289 -142 141 -11 264 24 345 99 96
88 104 134 104 586 l0 342 -120 0 -120 0 0 -31 0 -30 -27 21 c-16 12 -44 29
-63 37 -41 17 -162 26 -205 14z m221 -207 c104 -49 112 -205 14 -271 -68 -47
-175 -23 -221 49 -26 43 -23 135 7 176 43 58 132 78 200 46z"/>
</g>
</svg>
